<svg xmlns="http://www.w3.org/2000/svg" xmlns:xlink="http://www.w3.org/1999/xlink" width="500" zoomAndPan="magnify" viewBox="0 0 375 374.999991" height="500" preserveAspectRatio="xMidYMid meet" version="1.0"><defs><g/><clipPath id="89cc5f53b7"><path d="M 2.570312 2.570312 L 372.429688 2.570312 L 372.429688 372.429688 L 2.570312 372.429688 Z M 2.570312 2.570312 " clip-rule="nonzero"/></clipPath><clipPath id="3d051efb3e"><path d="M 187.5 2.570312 C 85.363281 2.570312 2.570312 85.363281 2.570312 187.5 C 2.570312 289.636719 85.363281 372.429688 187.5 372.429688 C 289.636719 372.429688 372.429688 289.636719 372.429688 187.5 C 372.429688 85.363281 289.636719 2.570312 187.5 2.570312 Z M 187.5 2.570312 " clip-rule="nonzero"/></clipPath><clipPath id="b8e56e153e"><path d="M 22 22 L 353 22 L 353 353 L 22 353 Z M 22 22 " clip-rule="nonzero"/></clipPath><clipPath id="df17caddd4"><path d="M 194.992188 25.308594 L 196.449219 26.539062 C 200.941406 30.339844 207.300781 31.007812 212.480469 28.222656 L 214.183594 27.308594 C 219.140625 24.644531 225.296875 25.953125 228.742188 30.402344 L 229.898438 31.890625 C 233.5 36.539062 239.582031 38.511719 245.226562 36.859375 L 247.097656 36.3125 C 252.496094 34.734375 258.246094 37.292969 260.691406 42.359375 L 261.496094 44.039062 C 264.050781 49.335938 269.589844 52.527344 275.453125 52.078125 L 277.40625 51.929688 C 283.011719 51.503906 288.105469 55.199219 289.433594 60.664062 L 289.871094 62.457031 C 291.261719 68.167969 296.015625 72.441406 301.84375 73.214844 L 303.78125 73.472656 C 309.351562 74.214844 313.566406 78.886719 313.722656 84.503906 L 313.777344 86.34375 C 313.941406 92.21875 317.703125 97.382812 323.242188 99.347656 L 325.074219 99.996094 C 330.371094 101.875 333.515625 107.320312 332.5 112.84375 L 332.164062 114.65625 C 331.101562 120.433594 333.703125 126.269531 338.714844 129.335938 L 340.355469 130.34375 C 345.144531 133.273438 347.089844 139.253906 344.941406 144.441406 L 344.230469 146.15625 C 341.984375 151.582031 343.316406 157.832031 347.578125 161.871094 L 348.957031 163.179688 C 353.03125 167.042969 353.691406 173.292969 350.507812 177.917969 L 349.445312 179.464844 C 346.117188 184.304688 346.117188 190.691406 349.445312 195.53125 L 350.507812 197.078125 C 353.691406 201.703125 353.03125 207.953125 348.957031 211.816406 L 347.578125 213.125 C 343.316406 217.164062 341.984375 223.414062 344.230469 228.839844 L 344.941406 230.554688 C 347.089844 235.742188 345.144531 241.722656 340.355469 244.65625 L 338.714844 245.660156 C 333.703125 248.726562 331.101562 254.5625 332.164062 260.339844 L 332.5 262.152344 C 333.515625 267.675781 330.371094 273.121094 325.074219 275 L 323.242188 275.648438 C 317.703125 277.613281 313.941406 282.777344 313.777344 288.652344 L 313.722656 290.492188 C 313.566406 296.109375 309.351562 300.78125 303.78125 301.523438 L 301.84375 301.78125 C 296.015625 302.554688 291.261719 306.828125 289.871094 312.539062 L 289.433594 314.332031 C 288.105469 319.796875 283.011719 323.492188 277.40625 323.066406 L 275.453125 322.917969 C 269.589844 322.46875 264.050781 325.660156 261.5 330.957031 L 260.6875 332.636719 C 258.246094 337.703125 252.496094 340.261719 247.097656 338.683594 L 245.226562 338.136719 C 239.582031 336.484375 233.5 338.457031 229.898438 343.105469 L 228.742188 344.59375 C 225.296875 349.042969 219.140625 350.351562 214.183594 347.6875 L 212.480469 346.773438 C 207.300781 343.988281 200.941406 344.65625 196.449219 348.457031 L 194.992188 349.6875 C 190.695312 353.324219 184.402344 353.324219 180.105469 349.6875 L 178.648438 348.457031 C 174.15625 344.65625 167.796875 343.988281 162.613281 346.773438 L 160.914062 347.6875 C 155.957031 350.351562 149.800781 349.042969 146.351562 344.59375 L 145.199219 343.105469 C 141.597656 338.457031 135.515625 336.484375 129.867188 338.136719 L 128 338.683594 C 122.597656 340.261719 116.851562 337.703125 114.40625 332.636719 L 113.597656 330.957031 C 111.042969 325.660156 105.503906 322.46875 99.640625 322.917969 L 97.691406 323.066406 C 92.082031 323.492188 86.992188 319.796875 85.660156 314.332031 L 85.222656 312.539062 C 83.832031 306.828125 79.078125 302.554688 73.25 301.78125 L 71.3125 301.523438 C 65.742188 300.78125 61.53125 296.109375 61.371094 290.492188 L 61.320312 288.652344 C 61.152344 282.777344 57.390625 277.613281 51.851562 275.648438 L 50.019531 275 C 44.726562 273.121094 41.578125 267.675781 42.597656 262.152344 L 42.929688 260.339844 C 43.996094 254.5625 41.390625 248.726562 36.382812 245.660156 L 34.738281 244.652344 C 29.953125 241.722656 28.007812 235.742188 30.15625 230.554688 L 30.867188 228.839844 C 33.113281 223.414062 31.78125 217.164062 27.519531 213.125 L 26.136719 211.816406 C 22.0625 207.953125 21.40625 201.703125 24.589844 197.078125 L 25.652344 195.53125 C 28.980469 190.691406 28.980469 184.304688 25.652344 179.464844 L 24.589844 177.917969 C 21.40625 173.292969 22.0625 167.042969 26.136719 163.179688 L 27.519531 161.871094 C 31.78125 157.832031 33.113281 151.582031 30.867188 146.15625 L 30.15625 144.441406 C 28.007812 139.253906 29.953125 133.273438 34.738281 130.34375 L 36.382812 129.335938 C 41.390625 126.269531 43.996094 120.433594 42.929688 114.65625 L 42.597656 112.84375 C 41.578125 107.320312 44.726562 101.875 50.019531 99.996094 L 51.851562 99.347656 C 57.390625 97.382812 61.152344 92.21875 61.320312 86.34375 L 61.371094 84.503906 C 61.53125 78.886719 65.742188 74.214844 71.3125 73.472656 L 73.25 73.214844 C 79.078125 72.441406 83.832031 68.167969 85.222656 62.457031 L 85.660156 60.664062 C 86.992188 55.199219 92.082031 51.503906 97.691406 51.929688 L 99.640625 52.078125 C 105.503906 52.527344 111.042969 49.335938 113.597656 44.039062 L 114.40625 42.359375 C 116.847656 37.292969 122.597656 34.734375 128 36.3125 L 129.867188 36.859375 C 135.515625 38.511719 141.597656 36.539062 145.199219 31.890625 L 146.351562 30.402344 C 149.800781 25.953125 155.957031 24.644531 160.914062 27.308594 L 162.613281 28.222656 C 167.796875 31.007812 174.15625 30.339844 178.648438 26.539062 L 180.105469 25.308594 C 184.402344 21.671875 190.695312 21.671875 194.992188 25.308594 Z M 194.992188 25.308594 " clip-rule="nonzero"/></clipPath><clipPath id="324d752253"><path d="M 167.730469 62.234375 L 207.480469 62.234375 L 207.480469 136.484375 L 167.730469 136.484375 Z M 167.730469 62.234375 " clip-rule="nonzero"/></clipPath></defs><g clip-path="url(#89cc5f53b7)"><g clip-path="url(#3d051efb3e)"><path fill="#ffe6ec" d="M 2.570312 2.570312 L 372.429688 2.570312 L 372.429688 372.429688 L 2.570312 372.429688 Z M 2.570312 2.570312 " fill-opacity="1" fill-rule="nonzero"/></g></g><g clip-path="url(#b8e56e153e)"><g clip-path="url(#df17caddd4)"><path stroke-linecap="butt" transform="matrix(0.75, 0, 0, 0.75, 19.061594, 19.011765)" fill="none" stroke-linejoin="miter" d="M 234.57414 8.395773 L 236.516849 10.036398 C 242.506433 15.104107 250.9856 15.994732 257.89185 12.28119 L 260.162684 11.06244 C 266.772059 7.510356 274.980393 9.255148 279.574143 15.18744 L 281.11581 17.171815 C 285.917894 23.369732 294.027269 25.999941 301.553311 23.796815 L 304.048103 23.067649 C 311.24602 20.963482 318.912688 24.37494 322.173104 31.130149 L 323.251229 33.369733 C 326.652271 40.432233 334.037689 44.687442 341.855397 44.088483 L 344.459564 43.890567 C 351.933523 43.322858 358.72519 48.249942 360.496024 55.536401 L 361.079357 57.927026 C 362.933524 65.54161 369.272066 71.239527 377.0429 72.270777 L 379.626233 72.614527 C 387.053317 73.60411 392.673109 79.833277 392.881442 87.322861 L 392.954359 89.775986 C 393.173109 97.60932 398.188734 104.494737 405.574152 107.114529 L 408.01686 107.979113 C 415.079361 110.484321 419.272069 117.744738 417.917902 125.109322 L 417.469986 127.525989 C 416.053319 135.229114 419.522069 143.010365 426.204361 147.098907 L 428.391861 148.442657 C 434.777278 152.348907 437.371029 160.322866 434.506445 167.239533 L 433.558528 169.525992 C 430.563737 176.760367 432.339778 185.093701 438.02207 190.479118 L 439.860612 192.22391 C 445.292904 197.374952 446.173113 205.708286 441.928321 211.874953 L 440.511654 213.937453 C 436.074154 220.390578 436.074154 228.906204 440.511654 235.359329 L 441.928321 237.421829 C 446.173113 243.588497 445.292904 251.92183 439.860612 257.072872 L 438.02207 258.817664 C 432.339778 264.203081 430.563737 272.536415 433.558528 279.770791 L 434.506445 282.057249 C 437.371029 288.973916 434.777278 296.947875 428.391861 300.859334 L 426.204361 302.197875 C 419.522069 306.286417 416.053319 314.067668 417.469986 321.770793 L 417.917902 324.18746 C 419.272069 331.552044 415.079361 338.812461 408.01686 341.31767 L 405.574152 342.182253 C 398.188734 344.802045 393.173109 351.687462 392.954359 359.520796 L 392.881442 361.973921 C 392.673109 369.463505 387.053317 375.692672 379.626233 376.682255 L 377.0429 377.026005 C 369.272066 378.057255 362.933524 383.755172 361.079357 391.369756 L 360.496024 393.760381 C 358.72519 401.04684 351.933523 405.973924 344.459564 405.406215 L 341.855397 405.208299 C 334.037689 404.60934 326.652271 408.864549 323.251229 415.92705 L 322.167896 418.166633 C 318.912688 424.921842 311.24602 428.3333 304.048103 426.229134 L 301.553311 425.499967 C 294.027269 423.296842 285.917894 425.92705 281.11581 432.124967 L 279.574143 434.109342 C 274.980393 440.041634 266.772059 441.786426 260.162684 438.234343 L 257.89185 437.015593 C 250.9856 433.302051 242.506433 434.192676 236.516849 439.260384 L 234.57414 440.901009 C 228.844973 445.749968 220.454348 445.749968 214.725181 440.901009 L 212.782472 439.260384 C 206.792889 434.192676 198.313721 433.302051 191.402262 437.015593 L 189.136637 438.234343 C 182.527262 441.786426 174.318928 440.041634 169.719969 434.109342 L 168.183511 432.124967 C 163.381427 425.92705 155.272052 423.296842 147.740801 425.499967 L 145.251218 426.229134 C 138.048092 428.3333 130.386633 424.921842 127.126217 418.166633 L 126.048092 415.92705 C 122.641841 408.864549 115.256424 404.60934 107.438715 405.208299 L 104.839757 405.406215 C 97.36059 405.973924 90.574131 401.04684 88.798089 393.760381 L 88.214756 391.369756 C 86.360589 383.755172 80.022047 378.057255 72.251213 377.026005 L 69.667879 376.682255 C 62.240796 375.692672 56.626212 369.463505 56.41267 361.973921 L 56.344962 359.520796 C 56.121004 351.687462 51.105378 344.802045 43.719961 342.182253 L 41.277253 341.31767 C 34.219961 338.812461 30.022044 331.552044 31.381419 324.18746 L 31.824127 321.770793 C 33.246002 314.067668 29.772044 306.286417 23.09496 302.197875 L 20.902251 300.854125 C 14.522043 296.947875 11.928292 288.973916 14.792876 282.057249 L 15.740793 279.770791 C 18.735584 272.536415 16.959543 264.203081 11.277251 258.817664 L 9.433501 257.072872 C 4.001209 251.92183 3.126208 243.588497 7.371 237.421829 L 8.787667 235.359329 C 13.225167 228.906204 13.225167 220.390578 8.787667 213.937453 L 7.371 211.874953 C 3.126208 205.708286 4.001209 197.374952 9.433501 192.22391 L 11.277251 190.479118 C 16.959543 185.093701 18.735584 176.760367 15.740793 169.525992 L 14.792876 167.239533 C 11.928292 160.322866 14.522043 152.348907 20.902251 148.442657 L 23.09496 147.098907 C 29.772044 143.010365 33.246002 135.229114 31.824127 127.525989 L 31.381419 125.109322 C 30.022044 117.744738 34.219961 110.484321 41.277253 107.979113 L 43.719961 107.114529 C 51.105378 104.494737 56.121004 97.60932 56.344962 89.775986 L 56.41267 87.322861 C 56.626212 79.833277 62.240796 73.60411 69.667879 72.614527 L 72.251213 72.270777 C 80.022047 71.239527 86.360589 65.54161 88.214756 57.927026 L 88.798089 55.536401 C 90.574131 48.249942 97.36059 43.322858 104.839757 43.890567 L 107.438715 44.088483 C 115.256424 44.687442 122.641841 40.432233 126.048092 33.369733 L 127.126217 31.130149 C 130.381425 24.37494 138.048092 20.963482 145.251218 23.067649 L 147.740801 23.796815 C 155.272052 25.999941 163.381427 23.369732 168.183511 17.171815 L 169.719969 15.18744 C 174.318928 9.255148 182.527262 7.510356 189.136637 11.06244 L 191.402262 12.28119 C 198.313721 15.994732 206.792889 15.104107 212.782472 10.036398 L 214.725181 8.395773 C 220.454348 3.546814 228.844973 3.546814 234.57414 8.395773 Z M 234.57414 8.395773 " stroke="#ffffff" stroke-width="6" stroke-opacity="1" stroke-miterlimit="4"/></g></g><g clip-path="url(#324d752253)"><path fill="#000000" d="M 205.007812 82.074219 C 204.292969 81.863281 203.566406 82.257812 203.355469 82.960938 C 200.605469 92.117188 194.421875 98.035156 187.605469 98.035156 C 179.476562 98.035156 172.660156 89.726562 170.871094 78.613281 C 174.371094 81.539062 180.488281 83.449219 187.605469 83.449219 C 198.738281 83.449219 207.457031 78.789062 207.457031 72.84375 C 207.457031 66.894531 198.738281 62.234375 187.605469 62.234375 C 180.71875 62.234375 175.527344 65.085938 175.527344 68.863281 C 175.527344 72.644531 180.71875 75.496094 187.605469 75.496094 C 192.132812 75.496094 195.546875 73.519531 195.546875 70.90625 C 195.546875 68.292969 192.132812 66.316406 187.605469 66.316406 C 186.875 66.316406 186.28125 66.910156 186.28125 67.640625 C 186.28125 68.375 186.875 68.96875 187.605469 68.96875 C 190.886719 68.96875 192.898438 70.226562 192.898438 70.90625 C 192.898438 71.589844 190.886719 72.84375 187.605469 72.84375 C 182.207031 72.84375 178.175781 70.742188 178.175781 68.863281 C 178.175781 66.988281 182.207031 64.886719 187.605469 64.886719 C 197.898438 64.886719 204.8125 69 204.8125 72.84375 C 204.8125 76.683594 197.898438 80.796875 187.605469 80.796875 C 177.3125 80.796875 170.398438 76.683594 170.398438 72.84375 C 170.398438 71.191406 171.597656 69.886719 172.601562 69.078125 C 173.171875 68.621094 173.265625 67.789062 172.8125 67.214844 C 172.355469 66.644531 171.519531 66.550781 170.949219 67.007812 C 168.886719 68.660156 167.753906 70.730469 167.753906 72.84375 C 167.753906 87.570312 175.953125 99.628906 186.28125 100.59375 L 186.28125 114.808594 C 185.964844 114.578125 185.675781 114.316406 185.332031 114.125 C 183.644531 113.140625 181.65625 112.621094 179.585938 112.621094 C 175.867188 112.621094 172.371094 114.371094 170.46875 117.183594 C 170.167969 117.632812 170.167969 118.222656 170.46875 118.671875 C 172.375 121.484375 175.867188 123.230469 179.585938 123.230469 C 180.644531 123.230469 181.679688 123.089844 182.671875 122.8125 C 183.375 122.613281 183.785156 121.882812 183.585938 121.179688 C 183.390625 120.472656 182.664062 120.0625 181.953125 120.257812 C 178.878906 121.125 175.226562 120.121094 173.242188 117.929688 C 175.695312 115.210938 180.675781 114.484375 184.023438 116.433594 C 184.929688 116.941406 185.6875 117.632812 186.28125 118.417969 L 186.28125 135.167969 C 186.28125 135.898438 186.875 136.492188 187.605469 136.492188 C 188.335938 136.492188 188.929688 135.898438 188.929688 135.167969 L 188.929688 114.484375 C 190.800781 115.824219 193.15625 116.605469 195.625 116.605469 C 199.34375 116.605469 202.839844 114.855469 204.742188 112.042969 C 204.746094 112.039062 204.746094 112.03125 204.746094 112.027344 C 204.792969 111.957031 204.8125 111.875 204.84375 111.800781 C 204.945312 111.554688 204.992188 111.296875 204.941406 111.042969 C 204.941406 111.035156 204.933594 111.027344 204.929688 111.015625 C 204.894531 110.855469 204.835938 110.703125 204.742188 110.566406 C 204.742188 110.566406 204.742188 110.5625 204.738281 110.558594 C 202.839844 107.746094 199.347656 105.996094 195.625 105.996094 C 194.570312 105.996094 193.53125 106.140625 192.542969 106.417969 C 191.835938 106.613281 191.425781 107.347656 191.621094 108.050781 C 191.816406 108.753906 192.542969 109.167969 193.253906 108.96875 C 196.328125 108.105469 199.890625 109.109375 201.90625 111.269531 C 200.410156 112.917969 198.117188 113.953125 195.625 113.953125 C 192.894531 113.953125 190.382812 112.742188 188.929688 110.8125 L 188.929688 100.625 C 196.398438 99.9375 202.964844 93.464844 205.890625 83.734375 C 206.101562 83.03125 205.707031 82.289062 205.007812 82.082031 Z M 205.007812 82.074219 " fill-opacity="1" fill-rule="nonzero"/></g><g fill="#000000" fill-opacity="1"><g transform="translate(59.691454, 181.135199)"><g><path d="M 17.359375 0 L 0.375 0 L 0.375 -1.265625 C 2.3125 -1.410156 3.9375 -2.054688 5.25 -3.203125 C 6.5625 -4.347656 7.59375 -5.785156 8.34375 -7.515625 L 25.546875 -48.265625 L 27.640625 -48.265625 L 45.515625 -5.359375 C 46.054688 -3.972656 46.773438 -2.957031 47.671875 -2.3125 C 48.566406 -1.664062 49.707031 -1.316406 51.09375 -1.265625 L 51.09375 0 L 33.078125 0 L 33.078125 -1.1875 C 33.960938 -1.289062 34.890625 -1.503906 35.859375 -1.828125 C 36.828125 -2.148438 37.3125 -2.90625 37.3125 -4.09375 C 37.3125 -4.394531 37.285156 -4.691406 37.234375 -4.984375 C 37.191406 -5.285156 37.117188 -5.535156 37.015625 -5.734375 L 31.5 -19 L 14.828125 -19 L 10.359375 -7.96875 C 10.203125 -7.625 10.085938 -7.210938 10.015625 -6.734375 C 9.941406 -6.265625 9.90625 -5.859375 9.90625 -5.515625 C 9.90625 -4.171875 10.3125 -3.203125 11.125 -2.609375 C 11.945312 -2.015625 12.941406 -1.628906 14.109375 -1.453125 C 15.273438 -1.273438 16.359375 -1.1875 17.359375 -1.1875 Z M 23.09375 -39.171875 L 15.34375 -20.1875 L 30.984375 -20.1875 Z M 23.09375 -39.171875 "/></g></g></g><g fill="#000000" fill-opacity="1"><g transform="translate(115.183682, 181.135199)"><g><path d="M 0.515625 -48.421875 L 11.765625 -51.921875 L 11.765625 -5.28125 C 11.765625 -2.65625 12.929688 -1.316406 15.265625 -1.265625 L 15.265625 0 L 0.515625 0 L 0.515625 -1.265625 C 2.898438 -1.316406 4.09375 -2.65625 4.09375 -5.28125 L 4.09375 -42.984375 C 4.09375 -45.554688 2.898438 -46.921875 0.515625 -47.078125 Z M 0.515625 -48.421875 "/></g></g></g><g fill="#000000" fill-opacity="1"><g transform="translate(136.721665, 181.174719)"><g><path d="M 0.59375 -30.609375 L 11.84375 -34.1875 L 11.84375 -30.984375 L 12.65625 -31.734375 C 13.945312 -32.867188 15.382812 -33.707031 16.96875 -34.25 C 18.5625 -34.800781 20.203125 -35.078125 21.890625 -35.078125 C 23.929688 -35.078125 25.878906 -34.742188 27.734375 -34.078125 C 29.597656 -33.410156 30.976562 -32.128906 31.875 -30.234375 L 32.25 -29.5 L 32.765625 -30.171875 C 34.015625 -31.859375 35.582031 -33.097656 37.46875 -33.890625 C 39.351562 -34.679688 41.3125 -35.078125 43.34375 -35.078125 C 46.570312 -35.078125 49.117188 -34.296875 50.984375 -32.734375 C 52.847656 -31.171875 53.78125 -28.703125 53.78125 -25.328125 L 53.78125 -5.28125 C 53.78125 -2.65625 54.972656 -1.316406 57.359375 -1.265625 L 57.359375 0 L 42.609375 0 L 42.609375 -1.265625 C 44.941406 -1.316406 46.109375 -2.65625 46.109375 -5.28125 L 46.109375 -25.171875 C 46.109375 -26.410156 45.894531 -27.648438 45.46875 -28.890625 C 45.050781 -30.140625 44.378906 -31.171875 43.453125 -31.984375 C 42.535156 -32.804688 41.3125 -33.21875 39.78125 -33.21875 C 38.4375 -33.21875 37.242188 -32.804688 36.203125 -31.984375 C 35.160156 -31.171875 34.328125 -30.164062 33.703125 -28.96875 C 33.078125 -27.78125 32.765625 -26.566406 32.765625 -25.328125 L 32.765625 -5.28125 C 32.765625 -2.65625 33.957031 -1.316406 36.34375 -1.265625 L 36.34375 0 L 21.59375 0 L 21.59375 -1.265625 C 22.882812 -1.316406 23.789062 -1.664062 24.3125 -2.3125 C 24.832031 -2.957031 25.09375 -3.945312 25.09375 -5.28125 L 25.09375 -25.171875 C 25.09375 -27.359375 24.644531 -29.242188 23.75 -30.828125 C 22.863281 -32.421875 21.128906 -33.21875 18.546875 -33.21875 C 17.160156 -33.21875 15.957031 -32.796875 14.9375 -31.953125 C 13.914062 -31.109375 13.144531 -30.066406 12.625 -28.828125 C 12.101562 -27.585938 11.84375 -26.367188 11.84375 -25.171875 L 11.84375 -5.28125 C 11.84375 -2.65625 13.007812 -1.316406 15.34375 -1.265625 L 15.34375 0 L 0.59375 0 L 0.59375 -1.265625 C 2.976562 -1.316406 4.171875 -2.65625 4.171875 -5.28125 L 4.171875 -25.171875 C 4.171875 -27.753906 2.976562 -29.117188 0.59375 -29.265625 Z M 0.59375 -30.609375 "/></g></g></g><g fill="#000000" fill-opacity="1"><g transform="translate(196.080384, 181.174719)"><g><path d="M 17.734375 0.75 C 14.148438 0.75 11.175781 -0.03125 8.8125 -1.59375 C 6.457031 -3.164062 4.695312 -5.316406 3.53125 -8.046875 C 2.363281 -10.773438 1.78125 -13.878906 1.78125 -17.359375 C 1.78125 -20.828125 2.363281 -23.890625 3.53125 -26.546875 C 4.695312 -29.203125 6.457031 -31.285156 8.8125 -32.796875 C 11.175781 -34.316406 14.148438 -35.078125 17.734375 -35.078125 C 23.140625 -35.078125 27.15625 -33.4375 29.78125 -30.15625 C 32.414062 -26.882812 33.734375 -22.617188 33.734375 -17.359375 C 33.734375 -13.878906 33.148438 -10.773438 31.984375 -8.046875 C 30.816406 -5.316406 29.054688 -3.164062 26.703125 -1.59375 C 24.347656 -0.03125 21.359375 0.75 17.734375 0.75 Z M 9.90625 -17.359375 C 9.90625 -16.066406 9.976562 -14.460938 10.125 -12.546875 C 10.28125 -10.640625 10.601562 -8.738281 11.09375 -6.84375 C 11.59375 -4.957031 12.375 -3.378906 13.4375 -2.109375 C 14.507812 -0.847656 15.941406 -0.21875 17.734375 -0.21875 C 19.566406 -0.21875 21.003906 -0.847656 22.046875 -2.109375 C 23.085938 -3.378906 23.867188 -4.957031 24.390625 -6.84375 C 24.910156 -8.738281 25.242188 -10.640625 25.390625 -12.546875 C 25.546875 -14.460938 25.625 -16.066406 25.625 -17.359375 C 25.625 -18.691406 25.5625 -20.289062 25.4375 -22.15625 C 25.3125 -24.019531 24.988281 -25.867188 24.46875 -27.703125 C 23.945312 -29.546875 23.164062 -31.070312 22.125 -32.28125 C 21.082031 -33.5 19.617188 -34.109375 17.734375 -34.109375 C 15.890625 -34.109375 14.445312 -33.5 13.40625 -32.28125 C 12.363281 -31.070312 11.59375 -29.546875 11.09375 -27.703125 C 10.601562 -25.867188 10.28125 -24.007812 10.125 -22.125 C 9.976562 -20.238281 9.90625 -18.648438 9.90625 -17.359375 Z M 9.90625 -17.359375 "/></g></g></g><g fill="#000000" fill-opacity="1"><g transform="translate(232.649096, 181.174719)"><g><path d="M 0.59375 -30.609375 L 11.84375 -34.1875 L 11.84375 -29.640625 L 12.734375 -30.984375 C 13.878906 -32.578125 15.316406 -33.65625 17.046875 -34.21875 C 18.785156 -34.789062 20.578125 -35.078125 22.421875 -35.078125 C 25.648438 -35.078125 28.28125 -34.296875 30.3125 -32.734375 C 32.351562 -31.171875 33.375 -28.703125 33.375 -25.328125 L 33.375 -5.28125 C 33.375 -3.945312 33.644531 -2.957031 34.1875 -2.3125 C 34.726562 -1.664062 35.625 -1.316406 36.875 -1.265625 L 36.875 0 L 22.125 0 L 22.125 -1.265625 C 24.507812 -1.316406 25.703125 -2.65625 25.703125 -5.28125 L 25.703125 -25.171875 C 25.703125 -26.460938 25.460938 -27.71875 24.984375 -28.9375 C 24.515625 -30.15625 23.804688 -31.171875 22.859375 -31.984375 C 21.921875 -32.804688 20.679688 -33.21875 19.140625 -33.21875 C 17.847656 -33.21875 16.644531 -32.796875 15.53125 -31.953125 C 14.414062 -31.109375 13.519531 -30.066406 12.84375 -28.828125 C 12.175781 -27.585938 11.84375 -26.367188 11.84375 -25.171875 L 11.84375 -5.28125 C 11.84375 -2.65625 13.007812 -1.316406 15.34375 -1.265625 L 15.34375 0 L 0.59375 0 L 0.59375 -1.265625 C 2.976562 -1.316406 4.171875 -2.65625 4.171875 -5.28125 L 4.171875 -25.171875 C 4.171875 -27.753906 2.976562 -29.117188 0.59375 -29.265625 Z M 0.59375 -30.609375 "/></g></g></g><g fill="#000000" fill-opacity="1"><g transform="translate(271.079719, 181.174719)"><g><path d="M 14.59375 -0.078125 C 11.363281 -0.078125 8.816406 -0.894531 6.953125 -2.53125 C 5.097656 -4.164062 3.769531 -6.3125 2.96875 -8.96875 C 2.175781 -11.625 1.78125 -14.421875 1.78125 -17.359375 C 1.78125 -20.785156 2.273438 -23.835938 3.265625 -26.515625 C 4.265625 -29.191406 5.859375 -31.300781 8.046875 -32.84375 C 10.234375 -34.382812 13.113281 -35.15625 16.6875 -35.15625 C 17.820312 -35.15625 19 -35.054688 20.21875 -34.859375 C 21.4375 -34.660156 22.441406 -34.210938 23.234375 -33.515625 L 24.0625 -32.765625 L 24.0625 -42.984375 C 24.0625 -45.554688 22.894531 -46.921875 20.5625 -47.078125 L 20.5625 -48.421875 L 31.734375 -51.921875 L 31.734375 -9.234375 C 31.734375 -6.554688 32.925781 -5.191406 35.3125 -5.140625 L 35.3125 -3.71875 L 24.0625 -0.21875 L 24.0625 -5.140625 L 23.09375 -3.796875 C 22.144531 -2.503906 20.890625 -1.5625 19.328125 -0.96875 C 17.765625 -0.375 16.1875 -0.078125 14.59375 -0.078125 Z M 18.84375 -33.890625 C 17.050781 -33.890625 15.570312 -33.21875 14.40625 -31.875 C 13.238281 -30.539062 12.332031 -28.890625 11.6875 -26.921875 C 11.039062 -24.960938 10.582031 -22.976562 10.3125 -20.96875 C 10.039062 -18.957031 9.90625 -17.28125 9.90625 -15.9375 C 9.90625 -14.84375 9.988281 -13.523438 10.15625 -11.984375 C 10.332031 -10.453125 10.691406 -8.953125 11.234375 -7.484375 C 11.785156 -6.015625 12.570312 -4.785156 13.59375 -3.796875 C 14.613281 -2.804688 15.96875 -2.3125 17.65625 -2.3125 C 18.945312 -2.3125 20.097656 -2.695312 21.109375 -3.46875 C 22.128906 -4.238281 22.960938 -5.09375 23.609375 -6.03125 C 23.660156 -6.132812 23.734375 -6.234375 23.828125 -6.328125 C 23.878906 -6.429688 23.929688 -6.53125 23.984375 -6.625 C 24.035156 -6.726562 24.0625 -6.851562 24.0625 -7 L 24.0625 -30.234375 C 24.0625 -30.535156 23.984375 -30.785156 23.828125 -30.984375 C 23.679688 -30.984375 23.609375 -31.082031 23.609375 -31.28125 C 23.066406 -32.070312 22.382812 -32.703125 21.5625 -33.171875 C 20.738281 -33.648438 19.832031 -33.890625 18.84375 -33.890625 Z M 18.84375 -33.890625 "/></g></g></g><g fill="#000000" fill-opacity="1"><g transform="translate(117.999717, 239.296695)"><g><path d="M 1.046875 -47.046875 L 1.046875 -48.25 C 3.972656 -48.25 6.863281 -48.257812 9.71875 -48.28125 C 12.570312 -48.300781 15.4375 -48.3125 18.3125 -48.3125 C 20.050781 -48.3125 21.773438 -48.273438 23.484375 -48.203125 C 25.203125 -48.128906 26.851562 -47.867188 28.4375 -47.421875 C 31.21875 -46.679688 33.375 -45.269531 34.90625 -43.1875 C 36.445312 -41.101562 37.21875 -38.617188 37.21875 -35.734375 C 37.21875 -32.859375 36.535156 -30.5 35.171875 -28.65625 C 33.804688 -26.820312 31.992188 -25.484375 29.734375 -24.640625 C 27.484375 -23.796875 25.015625 -23.375 22.328125 -23.375 C 24.566406 -23.28125 26.394531 -22.632812 27.8125 -21.4375 C 29.226562 -20.25 30.367188 -18.796875 31.234375 -17.078125 C 32.097656 -15.367188 32.851562 -13.671875 33.5 -11.984375 C 33.75 -11.335938 33.984375 -10.703125 34.203125 -10.078125 C 34.429688 -9.460938 34.644531 -8.859375 34.84375 -8.265625 C 35.09375 -7.671875 35.335938 -7.085938 35.578125 -6.515625 C 35.828125 -5.941406 36.078125 -5.40625 36.328125 -4.90625 C 36.878906 -3.96875 37.5 -3.175781 38.1875 -2.53125 C 38.882812 -1.882812 39.753906 -1.460938 40.796875 -1.265625 L 40.796875 0 L 32.828125 0 C 31.046875 0 29.671875 -0.789062 28.703125 -2.375 C 27.734375 -3.96875 26.878906 -5.957031 26.140625 -8.34375 C 25.785156 -9.476562 25.421875 -10.664062 25.046875 -11.90625 C 24.679688 -13.15625 24.273438 -14.347656 23.828125 -15.484375 C 22.878906 -17.921875 21.707031 -19.78125 20.3125 -21.0625 C 18.925781 -22.351562 16.847656 -23 14.078125 -23 L 13.03125 -23 L 13.03125 -5.28125 C 13.03125 -2.707031 14.195312 -1.34375 16.53125 -1.1875 L 16.53125 0 L 1.046875 0 L 1.046875 -1.265625 C 2.179688 -1.316406 3.179688 -1.640625 4.046875 -2.234375 C 4.921875 -2.828125 5.359375 -3.84375 5.359375 -5.28125 L 5.359375 -42.953125 C 5.359375 -44.398438 4.921875 -45.429688 4.046875 -46.046875 C 3.179688 -46.671875 2.179688 -47.003906 1.046875 -47.046875 Z M 13.546875 -47.203125 L 13.03125 -47.203125 L 13.03125 -24.265625 L 13.546875 -24.265625 C 14.242188 -24.265625 15.015625 -24.265625 15.859375 -24.265625 C 16.703125 -24.265625 17.570312 -24.289062 18.46875 -24.34375 C 19.351562 -24.445312 20.226562 -24.5625 21.09375 -24.6875 C 21.96875 -24.8125 22.726562 -24.992188 23.375 -25.234375 C 25.457031 -26.078125 26.945312 -27.53125 27.84375 -29.59375 C 28.738281 -31.65625 29.1875 -33.703125 29.1875 -35.734375 C 29.1875 -37.773438 28.738281 -39.8125 27.84375 -41.84375 C 26.945312 -43.875 25.457031 -45.3125 23.375 -46.15625 C 22.726562 -46.40625 21.96875 -46.601562 21.09375 -46.75 C 20.226562 -46.90625 19.351562 -47.003906 18.46875 -47.046875 C 17.570312 -47.148438 16.703125 -47.203125 15.859375 -47.203125 C 15.015625 -47.203125 14.242188 -47.203125 13.546875 -47.203125 Z M 13.546875 -47.203125 "/></g></g></g><g fill="#000000" fill-opacity="1"><g transform="translate(156.93474, 239.296695)"><g><path d="M 17.71875 0.75 C 14.144531 0.75 11.175781 -0.03125 8.8125 -1.59375 C 6.457031 -3.164062 4.695312 -5.316406 3.53125 -8.046875 C 2.363281 -10.773438 1.78125 -13.875 1.78125 -17.34375 C 1.78125 -20.820312 2.363281 -23.890625 3.53125 -26.546875 C 4.695312 -29.203125 6.457031 -31.285156 8.8125 -32.796875 C 11.175781 -34.304688 14.144531 -35.0625 17.71875 -35.0625 C 23.125 -35.0625 27.144531 -33.421875 29.78125 -30.140625 C 32.414062 -26.867188 33.734375 -22.601562 33.734375 -17.34375 C 33.734375 -13.875 33.148438 -10.773438 31.984375 -8.046875 C 30.816406 -5.316406 29.050781 -3.164062 26.6875 -1.59375 C 24.332031 -0.03125 21.34375 0.75 17.71875 0.75 Z M 9.90625 -17.34375 C 9.90625 -16.050781 9.976562 -14.445312 10.125 -12.53125 C 10.269531 -10.625 10.59375 -8.726562 11.09375 -6.84375 C 11.59375 -4.957031 12.375 -3.378906 13.4375 -2.109375 C 14.507812 -0.847656 15.9375 -0.21875 17.71875 -0.21875 C 19.550781 -0.21875 20.988281 -0.847656 22.03125 -2.109375 C 23.082031 -3.378906 23.867188 -4.957031 24.390625 -6.84375 C 24.910156 -8.726562 25.242188 -10.625 25.390625 -12.53125 C 25.535156 -14.445312 25.609375 -16.050781 25.609375 -17.34375 C 25.609375 -18.6875 25.546875 -20.285156 25.421875 -22.140625 C 25.296875 -24.003906 24.972656 -25.851562 24.453125 -27.6875 C 23.929688 -29.53125 23.148438 -31.054688 22.109375 -32.265625 C 21.066406 -33.484375 19.601562 -34.09375 17.71875 -34.09375 C 15.882812 -34.09375 14.445312 -33.484375 13.40625 -32.265625 C 12.363281 -31.054688 11.59375 -29.53125 11.09375 -27.6875 C 10.59375 -25.851562 10.269531 -23.992188 10.125 -22.109375 C 9.976562 -20.222656 9.90625 -18.632812 9.90625 -17.34375 Z M 9.90625 -17.34375 "/></g></g></g><g fill="#000000" fill-opacity="1"><g transform="translate(193.487999, 239.296695)"><g><path d="M 1.5625 -3.71875 C 1.507812 -3.820312 1.472656 -3.894531 1.453125 -3.9375 C 1.429688 -3.988281 1.394531 -4.039062 1.34375 -4.09375 L 2.453125 -11.171875 L 3.203125 -11.171875 C 3.296875 -9.828125 3.726562 -8.507812 4.5 -7.21875 C 5.269531 -5.925781 6.25 -4.769531 7.4375 -3.75 C 8.632812 -2.738281 9.914062 -1.921875 11.28125 -1.296875 C 12.644531 -0.679688 13.945312 -0.375 15.1875 -0.375 C 15.976562 -0.375 16.84375 -0.519531 17.78125 -0.8125 C 18.726562 -1.113281 19.550781 -1.609375 20.25 -2.296875 C 20.945312 -2.992188 21.296875 -3.890625 21.296875 -4.984375 C 21.296875 -6.128906 20.945312 -7.125 20.25 -7.96875 C 19.550781 -8.8125 18.707031 -9.566406 17.71875 -10.234375 C 16.726562 -10.910156 15.785156 -11.492188 14.890625 -11.984375 C 14.347656 -12.335938 13.773438 -12.671875 13.171875 -12.984375 C 12.578125 -13.304688 11.984375 -13.644531 11.390625 -14 C 9.804688 -14.9375 8.289062 -15.925781 6.84375 -16.96875 C 5.40625 -18.007812 4.238281 -19.210938 3.34375 -20.578125 C 2.457031 -21.953125 2.015625 -23.53125 2.015625 -25.3125 C 2.015625 -27.695312 2.644531 -29.59375 3.90625 -31 C 5.175781 -32.414062 6.816406 -33.445312 8.828125 -34.09375 C 10.835938 -34.738281 12.910156 -35.0625 15.046875 -35.0625 C 17.023438 -35.0625 18.957031 -34.726562 20.84375 -34.0625 C 22.726562 -33.394531 24.367188 -32.363281 25.765625 -30.96875 C 25.765625 -30.96875 25.925781 -30.796875 26.25 -30.453125 C 26.570312 -30.109375 26.753906 -29.882812 26.796875 -29.78125 L 26.796875 -24.265625 L 25.765625 -24.265625 C 25.171875 -25.609375 24.300781 -27.035156 23.15625 -28.546875 C 22.007812 -30.066406 20.679688 -31.347656 19.171875 -32.390625 C 17.660156 -33.429688 16.082031 -33.953125 14.4375 -33.953125 C 13.050781 -33.953125 11.882812 -33.515625 10.9375 -32.640625 C 10 -31.773438 9.53125 -30.625 9.53125 -29.1875 C 9.53125 -27.25 10.1875 -25.632812 11.5 -24.34375 C 12.8125 -23.050781 14.210938 -21.957031 15.703125 -21.0625 C 16.253906 -20.71875 16.828125 -20.394531 17.421875 -20.09375 C 18.015625 -19.800781 18.609375 -19.484375 19.203125 -19.140625 C 20.796875 -18.296875 22.285156 -17.398438 23.671875 -16.453125 C 25.066406 -15.515625 26.1875 -14.445312 27.03125 -13.25 C 27.875 -12.0625 28.296875 -10.625 28.296875 -8.9375 C 28.296875 -7.539062 27.894531 -6.195312 27.09375 -4.90625 C 25.851562 -2.78125 24.039062 -1.304688 21.65625 -0.484375 C 19.28125 0.335938 16.875 0.75 14.4375 0.75 C 12.15625 0.75 9.847656 0.414062 7.515625 -0.25 C 5.179688 -0.925781 3.195312 -2.082031 1.5625 -3.71875 Z M 1.5625 -3.71875 "/></g></g></g><g fill="#000000" fill-opacity="1"><g transform="translate(224.01114, 239.296695)"><g><path d="M 1.859375 -17.046875 C 1.859375 -20.273438 2.441406 -23.253906 3.609375 -25.984375 C 4.773438 -28.710938 6.5 -30.90625 8.78125 -32.5625 C 11.0625 -34.226562 13.890625 -35.0625 17.265625 -35.0625 C 20.203125 -35.0625 22.695312 -34.40625 24.75 -33.09375 C 26.8125 -31.78125 28.390625 -29.976562 29.484375 -27.6875 C 30.578125 -25.40625 31.125 -22.851562 31.125 -20.03125 L 31.125 -19.796875 L 9.90625 -19.796875 L 9.90625 -18.765625 C 9.90625 -17.171875 10.101562 -15.53125 10.5 -13.84375 C 10.894531 -12.15625 11.515625 -10.578125 12.359375 -9.109375 C 13.203125 -7.648438 14.304688 -6.460938 15.671875 -5.546875 C 17.035156 -4.628906 18.710938 -4.171875 20.703125 -4.171875 C 22.535156 -4.171875 24.332031 -4.601562 26.09375 -5.46875 C 27.851562 -6.34375 29.28125 -7.523438 30.375 -9.015625 L 31.046875 -8.5625 C 29.554688 -5.6875 27.832031 -3.414062 25.875 -1.75 C 23.914062 -0.0820312 21.171875 0.75 17.640625 0.75 C 14.222656 0.75 11.347656 -0.0390625 9.015625 -1.625 C 6.679688 -3.21875 4.90625 -5.367188 3.6875 -8.078125 C 2.46875 -10.785156 1.859375 -13.773438 1.859375 -17.046875 Z M 10.046875 -21.515625 L 10.046875 -21 L 23.15625 -21 L 23.15625 -21.515625 C 23.101562 -22.410156 22.960938 -23.539062 22.734375 -24.90625 C 22.515625 -26.269531 22.171875 -27.644531 21.703125 -29.03125 C 21.234375 -30.425781 20.597656 -31.59375 19.796875 -32.53125 C 19.003906 -33.476562 18.039062 -33.953125 16.90625 -33.953125 C 15.707031 -33.953125 14.695312 -33.476562 13.875 -32.53125 C 13.0625 -31.59375 12.378906 -30.441406 11.828125 -29.078125 C 11.285156 -27.710938 10.878906 -26.332031 10.609375 -24.9375 C 10.335938 -23.550781 10.148438 -22.410156 10.046875 -21.515625 Z M 10.046875 -21.515625 "/></g></g></g><g fill="#000000" fill-opacity="1"><g transform="translate(109.243943, 279.742635)"><g><path d="M 8.546875 0 C 11.09375 0 12.4375 -1.59375 12.4375 -3.59375 C 12.4375 -5.28125 11.296875 -6.65625 9.875 -6.875 C 11.125 -7.140625 12.171875 -8.25 12.171875 -9.9375 C 12.171875 -11.703125 10.875 -13.328125 8.328125 -13.328125 L 1.3125 -13.328125 L 1.3125 0 Z M 4.15625 -10.90625 L 7.71875 -10.90625 C 8.671875 -10.90625 9.265625 -10.265625 9.265625 -9.453125 C 9.265625 -8.59375 8.671875 -7.96875 7.71875 -7.96875 L 4.15625 -7.96875 Z M 4.15625 -5.5625 L 7.8125 -5.5625 C 8.9375 -5.5625 9.53125 -4.84375 9.53125 -4 C 9.53125 -3.03125 8.890625 -2.421875 7.8125 -2.421875 L 4.15625 -2.421875 Z M 4.15625 -5.5625 "/></g></g></g><g fill="#000000" fill-opacity="1"><g transform="translate(138.479277, 279.742635)"><g><path d="M 13.75 0 L 8.609375 -13.328125 L 5.0625 -13.328125 L -0.09375 0 L 3.015625 0 L 3.859375 -2.296875 L 9.8125 -2.296875 L 10.65625 0 Z M 9.03125 -4.75 L 4.609375 -4.75 L 6.828125 -10.875 Z M 9.03125 -4.75 "/></g></g></g><g fill="#000000" fill-opacity="1"><g transform="translate(168.13416, 279.742635)"><g><path d="M 12.734375 0 L 7.078125 -7.078125 L 12.375 -13.328125 L 8.875 -13.328125 L 4.15625 -7.375 L 4.15625 -13.328125 L 1.3125 -13.328125 L 1.3125 0 L 4.15625 0 L 4.15625 -4.09375 L 5.203125 -5.328125 L 9.234375 0 Z M 12.734375 0 "/></g></g></g><g fill="#000000" fill-opacity="1"><g transform="translate(196.830059, 279.742635)"><g><path d="M 10.75 0 L 10.75 -2.453125 L 4.15625 -2.453125 L 4.15625 -5.5625 L 10.609375 -5.5625 L 10.609375 -8 L 4.15625 -8 L 4.15625 -10.890625 L 10.75 -10.890625 L 10.75 -13.328125 L 1.3125 -13.328125 L 1.3125 0 Z M 10.75 0 "/></g></g></g><g fill="#000000" fill-opacity="1"><g transform="translate(224.467089, 279.742635)"><g><path d="M 12.109375 0 L 9.109375 -5.078125 C 10.546875 -5.421875 12.03125 -6.671875 12.03125 -9.03125 C 12.03125 -11.515625 10.328125 -13.328125 7.546875 -13.328125 L 1.3125 -13.328125 L 1.3125 0 L 4.15625 0 L 4.15625 -4.78125 L 6.234375 -4.78125 L 8.859375 0 Z M 9.140625 -9.046875 C 9.140625 -7.9375 8.28125 -7.21875 7.140625 -7.21875 L 4.15625 -7.21875 L 4.15625 -10.890625 L 7.140625 -10.890625 C 8.28125 -10.890625 9.140625 -10.171875 9.140625 -9.046875 Z M 9.140625 -9.046875 "/></g></g></g><g fill="#000000" fill-opacity="1"><g transform="translate(252.943179, 279.742635)"><g><path d="M 7.875 0 L 7.875 -5.453125 L 12.96875 -13.328125 L 9.734375 -13.328125 L 6.453125 -7.96875 L 3.140625 -13.328125 L -0.09375 -13.328125 L 5.03125 -5.453125 L 5.03125 0 Z M 7.875 0 "/></g></g></g></svg>